<svg xmlns="http://www.w3.org/2000/svg" width="288" height="288" enable-background="new 0 0 32 32" viewBox="0 0 32 32"><rect width="32" height="32" fill="none"></rect><path d="M13,31c-0.424,0-0.802-0.268-0.943-0.667l-0.49-1.39c-1.605-4.61-3.712-8.5-6.265-11.563
		C3.828,15.605,3.033,13.445,3,11.134C2.933,5.714,7.284,1.169,12.699,1c2.729-0.079,5.307,0.921,7.263,2.821
		C21.921,5.723,23,8.272,23,11c0,1.999-0.592,3.929-1.713,5.581c-0.199,0.293-0.542,0.447-0.892,0.437
		C20.264,17.009,20.137,17,20,17c-2.757,0-5,2.243-5,5c0,0.906,0.245,1.794,0.708,2.565c0.17,0.284,0.189,0.633,0.051,0.934
		c-0.337,0.731-0.644,1.488-0.936,2.314l-0.879,2.517c-0.14,0.4-0.518,0.669-0.942,0.67C13.001,31,13,31,13,31z M13.003,2.996
		c-0.081,0-0.163,0.001-0.244,0.004C8.501,3.132,4.947,6.845,5,11.107c0.026,1.849,0.662,3.576,1.839,4.994
		c2.464,2.956,4.53,6.618,6.15,10.899c0.237-0.66,0.482-1.278,0.745-1.878C13.252,24.158,13,23.089,13,22
		c0-3.833,3.097-6.957,6.921-7C20.628,13.788,21,12.416,21,11c0-2.183-0.863-4.223-2.431-5.744
		C17.062,3.793,15.094,2.996,13.003,2.996z" fill="#92b4ec" class="color000 svgShape"></path><path d="M13 15c-2.206 0-4-1.794-4-4s1.794-4 4-4 4 1.794 4 4S15.206 15 13 15zM13 9c-1.103 0-2 .897-2 2s.897 2 2 2 2-.897 2-2S14.103 9 13 9zM20 29c-2.445 0-4.748-1.305-6.007-3.405C13.343 24.512 13 23.269 13 22c0-3.859 3.14-7 7-7 .182 0 .352.011.522.021C24.16 15.292 27 18.356 27 22 27 25.859 23.859 29 20 29zM20 17c-2.757 0-5 2.243-5 5 0 .906.245 1.794.708 2.565C16.608 26.067 18.253 27 20 27c2.757 0 5-2.243 5-5 0-2.602-2.026-4.791-4.614-4.983C20.264 17.009 20.137 17 20 17z" fill="#92b4ec" class="color000 svgShape"></path><path d="M28,31c-0.256,0-0.512-0.098-0.707-0.293l-3-3c-0.391-0.391-0.391-1.023,0-1.414s1.023-0.391,1.414,0l3,3
		c0.391,0.391,0.391,1.023,0,1.414C28.512,30.902,28.256,31,28,31z" fill="#92b4ec" class="color000 svgShape"></path></svg>