<svg xmlns="http://www.w3.org/2000/svg" enable-background="new 0 0 64 64" viewBox="0 0 64 64" width="288" height="288"><path d="M24.338 41H21c-.276 0-.5-.224-.5-.5S20.724 40 21 40h3.338c.276 0 .5.224.5.5S24.615 41 24.338 41zM45.339 41H30.662c-.276 0-.5-.224-.5-.5s.224-.5.5-.5h14.677c.276 0 .5.224.5.5S45.615 41 45.339 41z" fill=" #92b4ec" class="color000 svgShape"></path><path d="M57 41h-5.339c-.276 0-.5-.224-.5-.5s.224-.5.5-.5H56.5v-3H24c-.276 0-.5-.224-.5-.5S23.724 36 24 36h33c.276 0 .5.224.5.5v4C57.5 40.776 57.276 41 57 41zM40.5 28H37c-.276 0-.5-.224-.5-.5v-3c0-.276.224-.5.5-.5h4c.276 0 .5.224.5.5v1c0 .276-.224.5-.5.5s-.5-.224-.5-.5V25h-3v2h3c.276 0 .5.224.5.5S40.776 28 40.5 28z" fill=" #92b4ec" class="color000 svgShape"></path><path d="M41 31h-4c-.276 0-.5-.224-.5-.5v-1c0-.276.224-.5.5-.5s.5.224.5.5V30h3v-2h-3c-.276 0-.5-.224-.5-.5s.224-.5.5-.5H41c.276 0 .5.224.5.5v3C41.5 30.776 41.276 31 41 31zM34 31h-4c-.276 0-.5-.224-.5-.5V30c0-.276.224-.5.5-.5s.5.224.5.5h3v-2h-1c-.276 0-.5-.224-.5-.5s.224-.5.5-.5H34c.276 0 .5.224.5.5v3C34.5 30.776 34.276 31 34 31zM48 26c-.276 0-.5-.224-.5-.5V25h-3v.5c0 .276-.224.5-.5.5s-.5-.224-.5-.5v-1c0-.276.224-.5.5-.5h4c.276 0 .5.224.5.5v1C48.5 25.776 48.276 26 48 26z" fill=" #92b4ec" class="color000 svgShape"></path><path d="M46 31c-.276 0-.5-.224-.5-.5V25c0-.276.224-.5.5-.5s.5.224.5.5v5.5C46.5 30.776 46.276 31 46 31zM33.5 31H30c-.276 0-.5-.224-.5-.5v-6c0-.276.224-.5.5-.5h4c.276 0 .5.224.5.5V26c0 .276-.224.5-.5.5s-.5-.224-.5-.5v-1h-3v5h3c.276 0 .5.224.5.5S33.776 31 33.5 31zM22 41h-2.34c-.276 0-.5-.224-.5-.5s.224-.5.5-.5h1.84V22h-6.018c-.665 0-1.242.428-1.435 1.064l-2.569 8.456c-.027.089-.079.169-.149.23l-3.317 2.902C7.687 34.938 7.5 35.35 7.5 35.782V38.5C7.5 39.327 8.173 40 9 40h4.34c.276 0 .5.224.5.5s-.224.5-.5.5H9c-1.378 0-2.5-1.121-2.5-2.5v-2.718c0-.721.311-1.406.854-1.881l3.209-2.809 2.527-8.319C13.413 21.713 14.375 21 15.482 21H22c.276 0 .5.224.5.5v19C22.5 40.776 22.276 41 22 41z" fill=" #92b4ec" class="color000 svgShape"></path><path d="M19 32h-8c-.276 0-.5-.224-.5-.5S10.724 31 11 31h7.5v-6h-5c-.276 0-.5-.224-.5-.5s.224-.5.5-.5H19c.276 0 .5.224.5.5v7C19.5 31.776 19.276 32 19 32zM57 37H22c-.276 0-.5-.224-.5-.5v-18c0-.276.224-.5.5-.5h35c.276 0 .5.224.5.5v18C57.5 36.776 57.276 37 57 37zM22.5 36h34V19h-34V36zM27.5 46c-2.206 0-4-1.794-4-4s1.794-4 4-4 4 1.794 4 4S29.706 46 27.5 46zM27.5 39c-1.654 0-3 1.346-3 3s1.346 3 3 3 3-1.346 3-3S29.154 39 27.5 39zM16.5 46c-2.206 0-4-1.794-4-4s1.794-4 4-4 4 1.794 4 4S18.706 46 16.5 46zM16.5 39c-1.654 0-3 1.346-3 3s1.346 3 3 3 3-1.346 3-3S18.154 39 16.5 39z" fill=" #92b4ec" class="color000 svgShape"></path><circle cx="16.5" cy="42" r=".5" fill=" #92b4ec" class="color000 svgShape"></circle><circle cx="27.5" cy="42" r=".5" fill=" #92b4ec" class="color000 svgShape"></circle><circle cx="48.5" cy="42" r=".5" fill=" #92b4ec" class="color000 svgShape"></circle><path d="M48.5 46c-2.206 0-4-1.794-4-4s1.794-4 4-4 4 1.794 4 4S50.706 46 48.5 46zM48.5 39c-1.654 0-3 1.346-3 3s1.346 3 3 3 3-1.346 3-3S50.154 39 48.5 39zM9 39H7c-.276 0-.5-.224-.5-.5v-2C6.5 36.224 6.724 36 7 36h2c.827 0 1.5.673 1.5 1.5S9.827 39 9 39zM7.5 38H9c.276 0 .5-.225.5-.5S9.276 37 9 37H7.5V38zM19 34h-2c-.276 0-.5-.224-.5-.5S16.724 33 17 33h2c.276 0 .5.224.5.5S19.276 34 19 34z" fill=" #92b4ec" class="color000 svgShape"></path></svg>